<svg xmlns="http://www.w3.org/2000/svg" viewBox="0 0 32 32" width="32" height="32">
  <defs>
    <linearGradient id="bg-gradient" x1="0%" y1="0%" x2="100%" y2="100%">
      <stop offset="0%" stop-color="#633bf3" />
      <stop offset="100%" stop-color="#00a2e8" />
    </linearGradient>
  </defs>

  <circle cx="16" cy="16" r="16" fill="url(#bg-gradient)" />

  <g transform="translate(4, 4) scale(1)" stroke="#ffffff" stroke-width="2" stroke-linecap="round" stroke-linejoin="round" fill="none">
    <path d="M9 4c-2.93 1.346 -5 5.046 -5 8.492c0 4.508 4 7.508 8 7.508s8 -3 8 -7c0 -3.513 -3.5 -5.513 -6 -5.513s-5 1.513 -5 4.513c0 2 1.5 3 3 3s3 -1 3 -3c0 -3.513 -2 -4.508 -2 -6.515c0 -3.504 3.5 -2.603 4 -1.502" />
  </g>
</svg>
